<?xml version="1.0" encoding="UTF-8"?>
<!DOCTYPE svg PUBLIC "-//W3C//DTD SVG 1.1//EN" "http://www.w3.org/Graphics/SVG/1.1/DTD/svg11.dtd">
<svg xmlns="http://www.w3.org/2000/svg" version="1.1" width="2000px" height="287px" style="shape-rendering:geometricPrecision; text-rendering:geometricPrecision; image-rendering:optimizeQuality; fill-rule:evenodd; clip-rule:evenodd" xmlns:xlink="http://www.w3.org/1999/xlink">
<g><path style="opacity:0.997" fill="#7e0a18" d="M 183.5,-0.5 C 191.167,-0.5 198.833,-0.5 206.5,-0.5C 230.044,1.63271 253.044,6.79938 275.5,15C 300.295,24.1287 317.461,40.962 327,65.5C 329.558,74.798 328.892,83.798 325,92.5C 323.681,94.4875 321.848,95.6541 319.5,96C 307.557,97.2488 295.557,97.9155 283.5,98C 267.289,101.528 256.123,111.028 250,126.5C 246.122,136.022 247.122,145.022 253,153.5C 262.138,163.392 271.471,173.059 281,182.5C 281.93,189.004 281.264,195.338 279,201.5C 270.179,219.993 257.346,235.16 240.5,247C 207.032,269.211 170.365,282.377 130.5,286.5C 124.167,286.5 117.833,286.5 111.5,286.5C 76.2293,284.448 47.396,269.781 25,242.5C 2.61767,208.828 -2.71566,172.495 9,133.5C 25.1317,73.3687 62.6317,33.202 121.5,13C 141.689,5.61477 162.356,1.11477 183.5,-0.5 Z M 134.5,26.5 C 140.75,26.8821 142.417,29.7154 139.5,35C 119.606,42.0635 100.939,51.3969 83.5,63C 64.3247,79.1878 50.158,99.0211 41,122.5C 37.0083,126.569 33.8416,125.902 31.5,120.5C 44.3572,86.8148 66.3572,60.9814 97.5,43C 109.687,36.9009 122.021,31.4009 134.5,26.5 Z M 192.5,149.5 C 212.775,150.607 222.275,161.273 221,181.5C 214.38,199.557 201.88,205.39 183.5,199C 168.022,187.9 165.522,174.4 176,158.5C 180.804,154.018 186.304,151.018 192.5,149.5 Z"/></g>
<g><path style="opacity:0.986" fill="#464646" d="M 404.5,-0.5 C 407.5,-0.5 410.5,-0.5 413.5,-0.5C 417.253,2.663 419.753,6.663 421,11.5C 421.667,99.1667 421.667,186.833 421,274.5C 419.753,279.337 417.253,283.337 413.5,286.5C 410.5,286.5 407.5,286.5 404.5,286.5C 399.692,283.573 396.858,279.239 396,273.5C 395.333,186.5 395.333,99.5 396,12.5C 396.854,6.77221 399.687,2.43887 404.5,-0.5 Z"/></g>
<g><path style="opacity:0.972" fill="#464646" d="M 1173.5,-0.5 C 1179.17,-0.5 1184.83,-0.5 1190.5,-0.5C 1220.81,3.25393 1241.98,19.2539 1254,47.5C 1257.11,55.9317 1259.27,64.5984 1260.5,73.5C 1260.29,74.9945 1259.62,76.1612 1258.5,77C 1248.48,79.1048 1238.48,81.2714 1228.5,83.5C 1226.93,70.878 1222.76,59.2114 1216,48.5C 1203.64,33.1589 1187.81,27.9923 1168.5,33C 1153.7,37.4686 1144.86,47.3019 1142,62.5C 1141.33,116.167 1141.33,169.833 1142,223.5C 1145.62,240.787 1156.12,250.954 1173.5,254C 1190.24,257.09 1204.07,252.257 1215,239.5C 1217.97,234.921 1219.97,229.921 1221,224.5C 1222.41,204.87 1222.91,185.203 1222.5,165.5C 1207.83,165.5 1193.17,165.5 1178.5,165.5C 1178.5,154.833 1178.5,144.167 1178.5,133.5C 1205.17,133.5 1231.83,133.5 1258.5,133.5C 1258.67,163.169 1258.5,192.835 1258,222.5C 1254.01,251.821 1238.18,271.654 1210.5,282C 1203.49,284.101 1196.49,285.601 1189.5,286.5C 1184.5,286.5 1179.5,286.5 1174.5,286.5C 1144.62,284.141 1123.12,269.474 1110,242.5C 1107.23,235.071 1105.56,227.404 1105,219.5C 1104.33,168.167 1104.33,116.833 1105,65.5C 1108.67,33.5006 1125.84,12.6673 1156.5,3C 1162.26,1.6145 1167.93,0.447831 1173.5,-0.5 Z"/></g>
<g><path style="opacity:0.979" fill="#464646" d="M 1487.5,0.5 C 1499.5,0.5 1511.5,0.5 1523.5,0.5C 1523.5,93.8333 1523.5,187.167 1523.5,280.5C 1511.5,280.5 1499.5,280.5 1487.5,280.5C 1487.5,187.167 1487.5,93.8333 1487.5,0.5 Z"/></g>
<g><path style="opacity:0.978" fill="#464646" d="M 555.5,5.5 C 567.747,5.17818 579.914,5.51151 592,6.5C 614.36,97.8031 636.527,189.136 658.5,280.5C 646.5,280.5 634.5,280.5 622.5,280.5C 618.799,262.362 614.466,244.362 609.5,226.5C 585.509,225.5 561.509,225.167 537.5,225.5C 533.009,243.797 528.676,262.13 524.5,280.5C 512.5,280.5 500.5,280.5 488.5,280.5C 510.455,188.718 532.789,97.0515 555.5,5.5 Z M 572.5,80.5 C 573.586,80.62 574.253,81.2867 574.5,82.5C 583.819,119.775 592.819,157.109 601.5,194.5C 582.833,194.5 564.167,194.5 545.5,194.5C 554.816,156.571 563.816,118.571 572.5,80.5 Z"/></g>
<g><path style="opacity:0.962" fill="#464646" d="M 835.5,5.5 C 847.833,5.5 860.167,5.5 872.5,5.5C 872.5,31.5 872.5,57.5 872.5,83.5C 888.5,83.5 904.5,83.5 920.5,83.5C 920.5,93.5 920.5,103.5 920.5,113.5C 904.5,113.5 888.5,113.5 872.5,113.5C 872.333,152.501 872.5,191.501 873,230.5C 876.302,249.057 887.135,256.557 905.5,253C 909.194,251.802 912.528,249.968 915.5,247.5C 920.374,256.082 925.374,264.582 930.5,273C 914.726,285.089 897.059,288.756 877.5,284C 855.72,277.885 842.553,263.718 838,241.5C 837.005,236.547 836.338,231.547 836,226.5C 835.5,188.835 835.333,151.168 835.5,113.5C 828.167,113.5 820.833,113.5 813.5,113.5C 813.5,103.5 813.5,93.5 813.5,83.5C 820.833,83.5 828.167,83.5 835.5,83.5C 835.5,57.5 835.5,31.5 835.5,5.5 Z"/></g>
<g><path style="opacity:0.976" fill="#464646" d="M 1363.5,77.5 C 1397.77,74.8791 1422.94,88.5457 1439,118.5C 1441.45,124.63 1443.12,130.963 1444,137.5C 1444.5,185.166 1444.67,232.832 1444.5,280.5C 1432.5,280.5 1420.5,280.5 1408.5,280.5C 1408.67,273.825 1408.5,267.158 1408,260.5C 1389.16,285.217 1365,292.051 1335.5,281C 1303.3,264.099 1291.8,237.933 1301,202.5C 1311.29,179.759 1328.79,166.259 1353.5,162C 1371.81,160.667 1390.14,160.167 1408.5,160.5C 1409.88,147.804 1407.72,135.804 1402,124.5C 1393.83,113 1382.66,107.833 1368.5,109C 1349.1,111.901 1338.43,123.068 1336.5,142.5C 1325.1,140.887 1313.77,138.887 1302.5,136.5C 1305.69,112.141 1318.36,94.6414 1340.5,84C 1348.07,81.0278 1355.74,78.8611 1363.5,77.5 Z M 1359.5,189.5 C 1375.83,189.5 1392.17,189.5 1408.5,189.5C 1410.14,209.366 1405.31,227.366 1394,243.5C 1382.59,254.728 1369.09,258.228 1353.5,254C 1333.65,243.467 1327.82,227.634 1336,206.5C 1341.72,197.74 1349.55,192.073 1359.5,189.5 Z"/></g>
<g><path style="opacity:0.976" fill="#464646" d="M 1626.5,77.5 C 1671.63,76.4653 1698.47,98.132 1707,142.5C 1707.67,168.833 1707.67,195.167 1707,221.5C 1701.57,256.264 1681.73,277.43 1647.5,285C 1605.71,288.872 1578.21,271.039 1565,231.5C 1564.23,227.853 1563.56,224.186 1563,220.5C 1562.33,194.833 1562.33,169.167 1563,143.5C 1568.85,106.487 1590.02,84.4874 1626.5,77.5 Z M 1626.5,109.5 C 1653.89,106.723 1668.72,119.057 1671,146.5C 1671.67,170.167 1671.67,193.833 1671,217.5C 1667.12,247.184 1650.62,258.684 1621.5,252C 1607.1,244.743 1599.6,232.91 1599,216.5C 1598.33,193.5 1598.33,170.5 1599,147.5C 1599.68,128.392 1608.85,115.725 1626.5,109.5 Z"/></g>
<g><path style="opacity:0.975" fill="#464646" d="M 1932.5,286.5 C 1927.17,286.5 1921.83,286.5 1916.5,286.5C 1886.07,282.252 1865.57,265.585 1855,236.5C 1853.68,231.9 1852.68,227.234 1852,222.5C 1851.33,195.5 1851.33,168.5 1852,141.5C 1855.78,115.401 1869.28,96.2339 1892.5,84C 1918.17,73.8958 1942.84,75.8958 1966.5,90C 1982.58,101.422 1992.08,116.922 1995,136.5C 1995.5,155.164 1995.67,173.83 1995.5,192.5C 1959.5,192.5 1923.5,192.5 1887.5,192.5C 1886.95,204.945 1887.79,217.279 1890,229.5C 1897.45,249.146 1911.62,257.312 1932.5,254C 1949.88,250.115 1959.22,239.281 1960.5,221.5C 1971.9,223.113 1983.23,225.113 1994.5,227.5C 1988.14,262.196 1967.47,281.863 1932.5,286.5 Z M 1919.5,108.5 C 1938.92,108.281 1951.75,117.281 1958,135.5C 1959.34,145.784 1959.84,156.117 1959.5,166.5C 1935.5,166.5 1911.5,166.5 1887.5,166.5C 1886.23,152.7 1888.06,139.366 1893,126.5C 1899.04,116.273 1907.88,110.273 1919.5,108.5 Z"/></g>
<g><path style="opacity:0.976" fill="#464646" d="M 753.5,79.5 C 766.375,77.8861 778.375,80.3861 789.5,87C 791.744,88.4223 793.41,90.2557 794.5,92.5C 790.992,102.548 786.825,112.214 782,121.5C 768.979,111.943 755.479,111.109 741.5,119C 734.028,125.444 729.861,133.61 729,143.5C 728.5,189.165 728.333,234.832 728.5,280.5C 716.5,280.5 704.5,280.5 692.5,280.5C 692.5,214.833 692.5,149.167 692.5,83.5C 704.5,83.5 716.5,83.5 728.5,83.5C 728.334,87.5138 728.501,91.5138 729,95.5C 735.476,87.5145 743.643,82.1812 753.5,79.5 Z"/></g>
<g><path style="opacity:0.974" fill="#464646" d="M 1803.5,79.5 C 1819.77,77.0596 1833.77,81.3929 1845.5,92.5C 1841.35,101.958 1837.35,111.458 1833.5,121C 1828.09,118.474 1822.42,116.141 1816.5,114C 1792.34,112.483 1779.84,123.983 1779,148.5C 1778.5,192.499 1778.33,236.499 1778.5,280.5C 1766.5,280.5 1754.5,280.5 1742.5,280.5C 1742.5,214.833 1742.5,149.167 1742.5,83.5C 1754.5,83.5 1766.5,83.5 1778.5,83.5C 1778.33,87.5138 1778.5,91.5138 1779,95.5C 1785.71,87.741 1793.88,82.4077 1803.5,79.5 Z"/></g>
<g><path style="opacity:0.976" fill="#474747" d="M 956.5,137.5 C 993.167,137.5 1029.83,137.5 1066.5,137.5C 1066.5,148.5 1066.5,159.5 1066.5,170.5C 1029.83,170.5 993.167,170.5 956.5,170.5C 956.5,159.5 956.5,148.5 956.5,137.5 Z"/></g>
</svg>
